<svg width="34" height="34" viewBox="0 0 24 24" fill="#60636C" xmlns="http://www.w3.org/2000/svg" class=""><path fill-rule="evenodd" clip-rule="evenodd" d="M20 6H4v12h16V6zM4 4a2 2 0 00-2 2v12a2 2 0 002 2h16a2 2 0 002-2V6a2 2 0 00-2-2H4z"></path><path fill-rule="evenodd" clip-rule="evenodd" d="M21.88 6.474l-2.862 5.317a2 2 0 01-3.176.466l-2.54-2.54-2.387 5.116a2 2 0 01-2.975.782L6.408 14.52 4.41 18.914l-1.82-.828 1.997-4.394a2 2 0 012.983-.8l1.532 1.095 2.388-5.116a2 2 0 013.227-.569l2.54 2.54 2.862-5.316 1.762.948z"></path></svg>