<svg width="18" height="18" viewBox="0 0 24 24" fill="#60636C" xmlns="http://www.w3.org/2000/svg" class="mr-1 my-auto"><path fill-rule="evenodd" clip-rule="evenodd" d="M11.47 5h6.354C18.474 5 19 5.527 19 6.176v6.353c0 .65-.527 1.177-1.176 1.177h-2.118V11.47a3.177 3.177 0 00-3.177-3.177h-2.235V6.176c0-.65.527-1.176 1.177-1.176zM8.295 8.294V6.176A3.176 3.176 0 0111.471 3h6.353A3.177 3.177 0 0121 6.176v6.353a3.177 3.177 0 01-3.176 3.177h-2.118v2.117A3.176 3.176 0 0112.529 21H6.176A3.176 3.176 0 013 17.823v-6.352a3.176 3.176 0 013.176-3.177h2.118zm5.412 7.412v2.117c0 .65-.527 1.177-1.177 1.177H6.176C5.526 19 5 18.473 5 17.823v-6.352c0-.65.527-1.177 1.176-1.177h2.118v2.235a3.177 3.177 0 003.177 3.177h2.235zm0-2H11.47c-.65 0-1.177-.527-1.177-1.177v-2.235h2.235c.65 0 1.177.527 1.177 1.177v2.235z"></path></svg>