<svg width="18" height="18" viewBox="0 0 24 24" fill="#60636C" xmlns="http://www.w3.org/2000/svg" class="mr-1 my-auto"><path fill-rule="evenodd" clip-rule="evenodd" d="M17 5H7a2 2 0 00-2 2v10a2 2 0 002 2h10a2 2 0 002-2V7a2 2 0 00-2-2zM7 3a4 4 0 00-4 4v10a4 4 0 004 4h10a4 4 0 004-4V7a4 4 0 00-4-4H7z"></path><path fill-rule="evenodd" clip-rule="evenodd" d="M4 7a1 1 0 000 2h16a1 1 0 100-2H4z"></path><path d="M7 12a1.25 1.25 0 112.5 0A1.25 1.25 0 017 12zM7 16a1.25 1.25 0 112.5 0A1.25 1.25 0 017 16zM10.75 12a1.25 1.25 0 112.5 0 1.25 1.25 0 01-2.5 0zM10.75 16a1.25 1.25 0 112.5 0 1.25 1.25 0 01-2.5 0zM14.5 12a1.25 1.25 0 112.5 0 1.25 1.25 0 01-2.5 0zM14.5 16a1.25 1.25 0 112.5 0 1.25 1.25 0 01-2.5 0z"></path></svg>