<svg data-v-a15e3fd0="" width="24" height="24" viewBox="0 0 24 24" fill="#fff" xmlns="http://www.w3.org/2000/svg" size="24" title="" class="mb-1 fill-white"><path data-v-a15e3fd0="" fill-rule="evenodd" clip-rule="evenodd" d="M12 3c1.944 0 3.744.616 5.215 1.664l-1.44 1.44a6.957 6.957 0 00-2.721-1.025c.182 1.767.819 3.13 1.778 4.089.96.96 2.322 1.596 4.09 1.778a6.957 6.957 0 00-1.026-2.72l1.44-1.44A8.959 8.959 0 0121 12a8.959 8.959 0 01-1.664 5.215l-1.44-1.44a6.957 6.957 0 001.04-2.819c-2.236-.189-4.13-.986-5.518-2.374a7.463 7.463 0 01-.418-.454v8.801a6.957 6.957 0 002.775-1.033l1.44 1.44A8.959 8.959 0 0112 21a8.959 8.959 0 01-5.215-1.664l1.44-1.44c.809.519 1.731.876 2.721 1.025-.182-1.767-.819-3.13-1.778-4.089-.96-.96-2.322-1.596-4.09-1.778.15.99.507 1.912 1.026 2.72l-1.44 1.44A8.959 8.959 0 013 12a8.96 8.96 0 011.664-5.215l1.44 1.44a6.957 6.957 0 00-1.04 2.819c2.236.189 4.13.986 5.518 2.374.146.146.285.297.418.454V5.07a6.957 6.957 0 00-2.775 1.033l-1.44-1.44A8.96 8.96 0 0112 3z" fill="#fff"></path></svg>