<svg data-v-a15e3fd0="" width="24" height="24" viewBox="0 0 24 24" fill="#fff" xmlns="http://www.w3.org/2000/svg" size="24" title="" class="mb-1 fill-white"><path data-v-a15e3fd0="" fill-rule="evenodd" clip-rule="evenodd" d="M5 5a1 1 0 000 2h2a1 1 0 000-2H5zM5 17a1 1 0 100 2h2a1 1 0 100-2H5zM5 13a1 1 0 100 2h2a1 1 0 100-2H5zM5 9a1 1 0 000 2h2a1 1 0 100-2H5zM11 5a1 1 0 100 2h2a1 1 0 100-2h-2zM11 17a1 1 0 100 2h2a1 1 0 100-2h-2zM11 13a1 1 0 100 2h2a1 1 0 100-2h-2zM11 9a1 1 0 100 2h2a1 1 0 100-2h-2zM17 5a1 1 0 100 2h2a1 1 0 100-2h-2zM17 17a1 1 0 100 2h2a1 1 0 100-2h-2zM17 13a1 1 0 100 2h2a1 1 0 100-2h-2zM17 9a1 1 0 100 2h2a1 1 0 100-2h-2z"></path></svg>