<svg data-v-a15e3fd0="" width="24" height="24" viewBox="0 0 24 24" fill="#fff" xmlns="http://www.w3.org/2000/svg" size="24" title="" class="mb-1 fill-white"><path data-v-a15e3fd0="" fill-rule="evenodd" clip-rule="evenodd" d="M4 5a1 1 0 00-1 1v12a1 1 0 001 1h16a1 1 0 100-2h-1a.996.996 0 00-.07-.366l-3.937-10a1 1 0 00-1.823-.086l-1.243 2.457-.934-2.371a1 1 0 00-1.823-.086L5 14.786V6a1 1 0 00-1-1zm6.718 6.393l-.77-1.953L6.121 17H8c0-.152.034-.307.108-.452l2.61-5.155zM10.12 17l1.577-3.116L12.925 17h-2.804zm2.786-5.504l1.041-2.056L16.925 17H15a.996.996 0 00-.07-.366l-2.023-5.138z"></path></svg>