<svg width="18" height="18" viewBox="0 0 24 24" fill="#60636C" xmlns="http://www.w3.org/2000/svg" class="mr-1 my-auto"><path fill-rule="evenodd" clip-rule="evenodd" d="M19 12a7 7 0 11-14 0 7 7 0 0114 0zm2 0a9 9 0 11-18 0 9 9 0 0118 0zm-10.654 2.344L9.722 16H7.91l.624-1.656h-1.14v-1.608h1.692l.432-1.176H7.934V9.952h2.232l.756-1.992h1.812l-.756 1.992h1.656l.756-1.992h1.812l-.744 1.992h1.188v1.608h-1.74l-.444 1.176h1.644v1.608h-2.28L13.19 16h-1.8l.612-1.656h-1.656zm2.94-2.916h-2.052l-.528 1.44h2.052l.528-1.44z"></path></svg>