<svg width="11" height="18" viewBox="0 0 11 18" fill="none" xmlns="http://www.w3.org/2000/svg">
<path fill-rule="evenodd" clip-rule="evenodd" d="M10.1207 9.05762C9.15345 8.3767 9.15345 6.94324 10.1207 6.26461C10.6515 5.89298 11.0001 5.27667 11.0001 4.57957C11.0001 3.4439 10.0814 2.52522 8.94576 2.52522C8.51872 2.52522 8.11938 2.65678 7.79161 2.88069C6.51282 3.73706 4.77469 3.28694 4.06837 1.92045C3.73136 1.24643 3.03426 0.782471 2.22867 0.782471C1.09301 0.782471 0.174316 1.70116 0.174316 2.83683C0.174316 3.9725 1.09301 4.89119 2.22867 4.89119C2.6557 4.89119 3.05504 4.75962 3.38281 4.53572C4.66159 3.67935 6.39971 4.12946 7.10605 5.49595C7.26073 5.80526 7.48922 6.0684 7.76855 6.26461C8.73105 6.94093 8.73569 8.36743 7.78008 9.05067C6.50128 9.89779 4.77007 9.44769 4.06605 8.08585C3.73136 7.4095 3.03426 6.94555 2.22867 6.94555C1.09301 6.94555 0.174316 7.86424 0.174316 8.9999C0.174316 9.69699 0.520557 10.3133 1.05377 10.6849C2.02093 11.3659 2.02093 12.7993 1.05377 13.4779C0.520557 13.8496 0.174316 14.4659 0.174316 15.163C0.174316 16.2986 1.09301 17.2173 2.22867 17.2173C3.36434 17.2173 4.28303 16.2986 4.28303 15.163C4.28303 14.4659 3.93679 13.8496 3.40358 13.4779C2.44104 12.8016 2.43642 11.3774 3.39204 10.6942C4.67082 9.84703 6.40202 10.2971 7.10605 11.659C7.44303 12.3331 8.14012 12.797 8.94576 12.797C10.0814 12.797 11.0001 11.8783 11.0001 10.7427C11.0001 10.0456 10.6539 9.42927 10.1207 9.05762Z" fill="black"/>
</svg>
