<svg data-v-a15e3fd0="" width="24" height="24" viewBox="0 0 24 24" fill="#fff" xmlns="http://www.w3.org/2000/svg" size="24" title="" class="mb-1 fill-white"><path data-v-a15e3fd0="" fill-rule="evenodd" clip-rule="evenodd" d="M20 6H4v12h16V6zM4 4a2 2 0 00-2 2v12a2 2 0 002 2h16a2 2 0 002-2V6a2 2 0 00-2-2H4z"></path><path data-v-a15e3fd0="" d="M9 11a1.5 1.5 0 11-3 0 1.5 1.5 0 013 0zM12 15a1.5 1.5 0 11-3 0 1.5 1.5 0 013 0zM15 9a1.5 1.5 0 11-3 0 1.5 1.5 0 013 0zM18 14a1.5 1.5 0 11-3 0 1.5 1.5 0 013 0z"></path></svg>