<svg width="18" height="18" viewBox="0 0 24 24" fill="#60636C" xmlns="http://www.w3.org/2000/svg" class="mr-1 my-auto"><path fill-rule="evenodd" clip-rule="evenodd" d="M6.6 6.6a3.055 3.055 0 000 4.32l1.92 1.92-1.44 1.44-1.92-1.92a5.091 5.091 0 017.2-7.2l1.92 1.92-1.44 1.44-1.92-1.92a3.055 3.055 0 00-4.32 0zM17.4 17.4a3.055 3.055 0 01-4.32 0l-1.92-1.92-1.44 1.44 1.92 1.92a5.091 5.091 0 007.2-7.2l-1.92-1.92-1.44 1.44 1.92 1.92a3.055 3.055 0 010 4.32z"></path><path fill-rule="evenodd" clip-rule="evenodd" d="M9.48 8.04l6.48 6.48-1.44 1.44-6.48-6.48 1.44-1.44z"></path></svg>